<svg xmlns="http://www.w3.org/2000/svg" id="Layer_1" width="80" height="80" viewBox="0 0 80 80">
  <style id="style4485">
    .st0{fill:#303047;} .st1{fill:url(#SVGID_2_);} .st2{fill:url(#SVGID_3_);} .st3{fill:url(#SVGID_5_);} .st4{fill:url(#SVGID_6_);}
  </style>
  <path id="path4487" fill="#303047" stroke-width="1.4" d="M41.6 65c-1 0-1.4-.6-1.3-1.7l7-46.6c.2-1 .7-1.7 1.8-1.7h15c10 0 15 3.6 15 11 0 3-.4 5.5-2 7.7-1 2.3-3 4-5.3 4.8 1.6.5 3 1.6 4 3.3 1 1.5 1.6 3.7 1.6 6.2 0 6-1.6 10-5 13-3.6 2.6-8 4-14 4zm16.6-8c7 0 10.4-3 10.4-9 0-1.8-.7-3-2-4-1-1-3.2-1.3-6-1.3H52l-2.2 14h8.4zm3.2-21.4c6 0 9-2.7 9-8 0-2-.5-3-1.7-3.7-1.2-1-3-1.5-5.6-1.5h-8l-2 12.8z" class="st0"/>
  <g id="g4515">
    <g id="g4513" transform="matrix(.9445 0 0 1.55763 1 14.533)">
      <linearGradient id="SVGID_2_" x2="40.3" y1="710.8" y2="710.8" gradientTransform="matrix(1 0 0 -1 0 723.5)" gradientUnits="userSpaceOnUse">
        <stop id="stop4507" offset="0" stop-color="#D42626"/>
        <stop id="stop4509" offset="1" stop-color="#CC1D2E"/>
      </linearGradient>
      <path id="SVGID_1_" fill="url(#SVGID_2_)" d="M40.3 12.7c0-1-1-2-2-2H2c-1.2 0-2 1-2 2s1 2 2 2h36.3c1 0 2-1 2-2z" class="st1"/>
    </g>
  </g>
  <g id="g4525">
    <g id="g4523" transform="matrix(.9445 0 0 1.55763 1 14.533)">
      <linearGradient id="SVGID_3_" x1="18.2" x2="44.5" y1="717.6" y2="717.6" gradientTransform="matrix(1 0 0 -1 0 723.5)" gradientUnits="userSpaceOnUse">
        <stop id="stop4517" offset="0" stop-color="#D42626"/>
        <stop id="stop4519" offset="1" stop-color="#CC1D2E"/>
      </linearGradient>
      <path id="SVGID_4_" fill="url(#SVGID_3_)" d="M44.5 6c0-1.2-1-2-2-2H20.3c-1 0-2 1-2 2s1 1.8 2 1.8h22.4c1 0 2-.8 2-2z" class="st2"/>
    </g>
  </g>
  <g id="g4535">
    <g id="g4533" transform="matrix(.9445 0 0 1.55763 1 14.533)">
      <linearGradient id="SVGID_5_" x1="23.9" x2="36.8" y1="696.8" y2="696.8" gradientTransform="matrix(1 0 0 -1 0 723.5)" gradientUnits="userSpaceOnUse">
        <stop id="stop4527" offset="0" stop-color="#D42626"/>
        <stop id="stop4529" offset="1" stop-color="#CC1D2E"/>
      </linearGradient>
      <path id="SVGID_7_" fill="url(#SVGID_5_)" d="M36.8 26.7c0-1-1-2-2-2h-9c-1 0-2 1-2 2s1 2 2 2h9c1 0 2-1 2-2z" class="st3"/>
    </g>
  </g>
  <g id="g4545">
    <g id="g4543" transform="matrix(.9445 0 0 1.55763 1 14.533)">
      <linearGradient id="SVGID_6_" x1="8" x2="34.1" y1="703.9" y2="703.9" gradientTransform="matrix(1 0 0 -1 0 723.5)" gradientUnits="userSpaceOnUse">
        <stop id="stop4537" offset="0" stop-color="#D42626"/>
        <stop id="stop4539" offset="1" stop-color="#CC1D2E"/>
      </linearGradient>
      <path id="SVGID_10_" fill="url(#SVGID_6_)" d="M34 19.6c0-1-.8-2-1.8-2H10c-1 0-2 1-2 2s1 2 2 2h22.2c1 0 2-1 2-2z" class="st4"/>
    </g>
  </g>
</svg>
